HIERARCHY
ROOT root
{
	OFFSET 0.000000 0.000000 0.000000
	CHANNELS 6 Xposition Yposition Zposition Zrotation Yrotation Xrotation
	JOINT lhip
	{
		OFFSET 0.058581 -0.082280 -0.017664
		CHANNELS 3 Zrotation Yrotation Xrotation
		JOINT lknee
		{
			OFFSET 0.043451 -0.386469 0.008037
			CHANNELS 3 Zrotation Yrotation Xrotation
			JOINT lankle
			{
				OFFSET -0.014790 -0.426874 -0.037428
				CHANNELS 3 Zrotation Yrotation Xrotation
				JOINT ltoe
				{
					OFFSET 0.041054 -0.060286 0.122042
					CHANNELS 3 Zrotation Yrotation Xrotation
					End Site
					{
						OFFSET 0.000000 0.000000 0.000000
					}
				}
			}
		}
	}
	JOINT rhip
	{
		OFFSET -0.060310 -0.090513 -0.013543
		CHANNELS 3 Zrotation Yrotation Xrotation
		JOINT rknee
		{
			OFFSET -0.043257 -0.383688 -0.004843
			CHANNELS 3 Zrotation Yrotation Xrotation
			JOINT rankle
			{
				OFFSET 0.019056 -0.420046 -0.034562
				CHANNELS 3 Zrotation Yrotation Xrotation
				JOINT rtoe
				{
					OFFSET -0.034840 -0.062106 0.130323
					CHANNELS 3 Zrotation Yrotation Xrotation
					End Site
					{
						OFFSET 0.000000 0.000000 0.000000
					}
				}
			}
		}
	}
	JOINT lowerback
	{
		OFFSET 0.004439 0.124404 -0.038385
		CHANNELS 3 Zrotation Yrotation Xrotation
		JOINT upperback
		{
			OFFSET 0.004488 0.137956 0.026820
			CHANNELS 3 Zrotation Yrotation Xrotation
			JOINT chest
			{
				OFFSET -0.002265 0.056032 0.002855
				CHANNELS 3 Zrotation Yrotation Xrotation
				JOINT lowerneck
				{
					OFFSET -0.013390 0.211636 -0.033468
					CHANNELS 3 Zrotation Yrotation Xrotation
					JOINT upperneck
					{
						OFFSET 0.010113 0.088937 0.050410
						CHANNELS 3 Zrotation Yrotation Xrotation
						End Site
						{
							OFFSET 0.000000 0.000000 0.000000
						}
					}
				}
				JOINT lclavicle
				{
					OFFSET 0.071702 0.114000 -0.018898
					CHANNELS 3 Zrotation Yrotation Xrotation
					JOINT lshoulder
					{
						OFFSET 0.122921 0.045205 -0.019046
						CHANNELS 3 Zrotation Yrotation Xrotation
						JOINT lelbow
						{
							OFFSET 0.255332 -0.015649 -0.022946
							CHANNELS 3 Zrotation Yrotation Xrotation
							JOINT lwrist
							{
								OFFSET 0.265709 0.012698 -0.007375
								CHANNELS 3 Zrotation Yrotation Xrotation
								End Site
								{
									OFFSET 0.000000 0.000000 0.000000
								}
							}
						}
					}
				}
				JOINT rclavicle
				{
					OFFSET -0.082954 0.112472 -0.023707
					CHANNELS 3 Zrotation Yrotation Xrotation
					JOINT rshoulder
					{
						OFFSET -0.113228 0.046853 -0.008472
						CHANNELS 3 Zrotation Yrotation Xrotation
						JOINT relbow
						{
							OFFSET -0.260127 -0.014369 -0.031269
							CHANNELS 3 Zrotation Yrotation Xrotation
							JOINT rwrist
							{
								OFFSET -0.269108 0.006794 -0.006027
								CHANNELS 3 Zrotation Yrotation Xrotation
								End Site
								{
									OFFSET 0.000000 0.000000 0.000000
								}
							}
						}
					}
				}
			}
		}
	}
}
MOTION
Frames: 8
Frame Time: 0.033333
2.340414 0.654577 0.967666 -88.104926 -4.255390 74.277590 -12.631111 2.179258 10.947208 -1.105114 -7.288393 9.872065 7.780522 17.176595 -18.843966 0.000000 -0.000000 0.000000 -9.941121 -2.369732 3.405804 -1.165314 0.716364 25.971641 3.577207 -5.275133 -24.310036 0.000000 -0.000000 0.000000 7.116040 3.340971 6.351840 -6.302910 2.765084 1.786619 -3.788741 3.705611 -2.911347 2.184284 18.694955 21.850218 -0.237110 24.974190 14.119927 -27.061904 -3.948026 3.672187 -51.670451 -1.157155 5.135230 4.539898 -18.195572 5.620847 -8.474586 -0.912293 4.013868 20.908597 9.401939 10.598052 58.641598 8.146642 16.581504 6.599464 22.259549 23.097877 3.949374 -1.387164 10.049012 
2.342170 0.653924 0.967252 -87.607625 -4.235994 74.587617 -12.737460 1.636480 10.364792 -1.181411 -7.105086 10.016448 7.240218 17.220053 -18.745377 0.000000 -0.000000 0.000000 -9.675933 -2.035146 2.914570 -1.603383 0.268883 26.195479 3.758894 -5.714824 -24.477783 0.000000 -0.000000 0.000000 7.187095 3.458406 6.985578 -6.634746 2.903867 0.107018 -3.691122 3.674834 -2.130196 1.798054 18.986225 22.070827 -0.690455 25.322130 12.832330 -27.044968 -4.107796 3.962659 -51.642816 -1.453416 5.348734 5.096564 -18.736728 5.726451 -7.466387 -1.603581 4.169791 20.704692 9.128701 10.350269 58.919915 7.688830 16.287114 6.177372 22.951346 22.076810 2.194715 -0.371931 8.698471 
2.342214 0.652714 0.968078 -87.129860 -4.307595 74.243854 -12.986082 1.674680 10.973924 -0.982394 -7.456153 9.574355 7.213200 17.150038 -18.621046 0.000000 -0.000000 0.000000 -9.745330 -2.261487 3.516667 -1.886084 0.308329 25.931722 3.938609 -5.770774 -24.524027 0.000000 -0.000000 0.000000 7.209026 3.580892 7.092500 -6.775315 2.831139 0.392438 -3.761188 3.816052 -2.153555 1.753364 19.056647 21.991993 -0.682037 25.210596 12.763287 -26.837932 -4.324559 3.949328 -51.822767 -1.561269 5.384135 5.336828 -19.086810 5.821310 -7.159372 -1.952914 3.907903 20.471080 9.233742 10.210320 59.413120 7.182777 15.878907 5.341644 23.430680 20.134041 1.921609 -0.098983 6.686924 
2.343319 0.651832 0.967837 -87.111393 -4.436788 74.154293 -13.071186 1.836685 10.958099 -1.092211 -7.374711 9.622380 7.187570 16.982172 -18.625163 0.000000 -0.000000 0.000000 -9.672682 -2.148695 3.374957 -2.172292 0.518563 26.198953 3.785395 -6.108732 -24.834188 0.000000 -0.000000 0.000000 7.193045 3.695675 7.245943 -6.821292 3.109802 0.555049 -3.816767 3.940373 -2.183656 1.668970 19.005526 21.664384 -0.501424 25.255301 12.852883 -26.720822 -4.036087 3.611093 -51.988559 -1.548485 5.513308 4.999231 -19.901493 5.649097 -7.797196 -1.457537 3.055921 20.349749 9.128162 10.069081 59.606219 6.990890 15.377806 3.988455 24.006462 17.130928 4.264953 -1.053348 4.300993 
2.343007 0.651223 0.967660 -86.970740 -4.534453 74.153425 -13.204853 1.762516 11.052051 -1.190672 -7.375028 9.492925 7.259718 17.010511 -18.560669 0.000000 -0.000000 0.000000 -9.754071 -2.189374 3.474618 -2.316749 0.556564 26.069806 3.651536 -6.451540 -24.822959 0.000000 -0.000000 0.000000 7.118793 3.762406 6.747300 -6.737478 3.117570 1.024508 -3.851539 3.845511 -2.157459 1.765269 18.991600 21.730861 -0.623395 25.215752 12.865483 -26.878126 -3.840723 3.645568 -51.940328 -1.491676 5.580285 4.933044 -20.065202 5.536795 -7.894093 -1.622264 2.433638 20.452272 8.924207 10.119303 59.489710 7.221251 15.211683 3.548746 23.978750 16.104880 4.319274 -1.059110 3.389504 
2.343617 0.650947 0.967394 -87.138371 -4.562506 74.099709 -13.223190 1.712841 11.116553 -1.251670 -7.192191 9.391241 7.229855 17.100357 -18.583859 0.000000 -0.000000 0.000000 -9.642490 -1.869741 3.341176 -2.392213 0.550545 26.360796 3.492148 -6.522378 -25.074858 0.000000 -0.000000 0.000000 7.113358 3.644466 7.017398 -6.674624 3.226388 0.789016 -3.870846 3.889927 -2.121338 1.817777 18.695191 21.695085 -0.765455 24.933439 12.775243 -27.121326 -3.538056 3.561967 -51.762802 -1.367532 5.612414 4.674046 -20.023471 5.122072 -8.473473 -1.619823 1.912222 20.509286 8.716004 10.007474 59.368929 7.332466 15.253966 3.138831 23.974512 15.276008 4.146533 -1.077244 2.922015 
2.343439 0.650318 0.967384 -87.019021 -4.426546 74.086963 -13.099803 1.926499 11.166583 -1.184422 -7.400754 9.358534 6.993459 16.941842 -18.578130 0.000000 -0.000000 0.000000 -9.563933 -2.080372 3.440661 -2.303344 0.726649 26.263602 3.322510 -6.511646 -25.216654 0.000000 -0.000000 0.000000 7.147738 3.526477 6.719652 -6.513946 3.049763 1.220686 -3.818950 3.891542 -2.256657 1.729107 18.659797 21.638091 -0.815914 25.008083 12.311456 -26.908737 -3.342581 3.496203 -51.929319 -1.189962 5.483426 4.028276 -19.862771 5.158396 -9.275798 -1.394838 1.325730 20.435009 8.614789 9.847532 59.238603 7.372678 15.014058 2.978000 23.958589 14.587601 5.229713 -1.259330 2.737613 
2.343312 0.649760 0.967556 -87.059968 -4.436623 74.210880 -13.162881 1.801056 11.056414 -1.198314 -7.312089 9.327146 6.860615 16.932228 -18.599469 0.000000 -0.000000 0.000000 -9.602489 -2.059638 3.368322 -2.351491 0.694885 26.168041 3.320284 -6.745457 -25.171138 0.000000 -0.000000 0.000000 7.030832 3.526131 6.352676 -6.393200 2.935811 1.578112 -3.758976 3.805553 -2.415360 1.737154 18.603791 21.593980 -0.836259 25.047712 11.792861 -26.931427 -3.489915 3.760260 -51.973693 -0.749316 5.527384 3.969102 -19.837334 5.196362 -10.289535 -0.934144 0.423795 20.380401 8.660513 9.953639 59.158800 7.234444 14.876696 2.765413 24.396666 14.072750 6.658533 -2.029825 1.417080 
